<svg xmlns="http://www.w3.org/2000/svg" xmlns:xlink="http://www.w3.org/1999/xlink" width="250" zoomAndPan="magnify" viewBox="0 0 187.5 374.999991" height="500" preserveAspectRatio="xMidYMid meet" version="1.0"><defs><g/><clipPath id="48f3b83f6f"><path d="M 108 57.503906 L 183.261719 57.503906 L 183.261719 130 L 108 130 Z M 108 57.503906 " clip-rule="nonzero"/></clipPath><clipPath id="8232e62870"><path d="M 0 94 L 173 94 L 173 322.296875 L 0 322.296875 Z M 0 94 " clip-rule="nonzero"/></clipPath></defs><g clip-path="url(#48f3b83f6f)"><path fill="#1b1919" d="M 183.164062 76.730469 C 183.261719 77.234375 183.175781 77.757812 182.9375 78.289062 C 181.785156 80.886719 177.03125 83.722656 171.984375 86.117188 C 171.066406 86.554688 170.140625 86.972656 169.222656 87.371094 C 163.484375 89.882812 158.160156 91.644531 158.160156 91.644531 L 157.421875 98.089844 L 160.0625 97.199219 C 161.15625 96.832031 162.339844 97.421875 162.707031 98.515625 C 163.074219 99.609375 162.488281 100.792969 161.394531 101.160156 L 156.894531 102.671875 L 153.910156 128.667969 L 150.996094 129.449219 L 146.070312 111.527344 L 144.738281 106.671875 L 144.121094 106.878906 C 143.457031 107.105469 142.726562 106.980469 142.167969 106.558594 C 140.820312 105.53125 141.164062 103.414062 142.773438 102.871094 L 143.617188 102.585938 L 142.25 97.59375 L 140.050781 98.394531 L 128.007812 102.792969 L 122.988281 114.613281 L 122.289062 115.441406 L 121.175781 116.769531 L 120.949219 115.46875 L 118.292969 100.242188 L 108.863281 88.019531 L 112.058594 87.910156 L 124.316406 93.460938 L 135.414062 89.042969 L 136.53125 88.601562 L 138.535156 87.800781 L 135.171875 82.257812 L 133.558594 82.800781 C 132.894531 83.027344 132.164062 82.90625 131.605469 82.480469 C 130.257812 81.453125 130.605469 79.335938 132.210938 78.796875 L 132.925781 78.554688 L 120.871094 58.6875 L 123.394531 57.503906 L 145.457031 74.464844 C 145.597656 74.378906 145.742188 74.300781 145.90625 74.246094 L 150.832031 72.589844 C 151.925781 72.222656 153.109375 72.8125 153.476562 73.90625 C 153.84375 75 153.257812 76.183594 152.164062 76.554688 L 149.382812 77.484375 L 154.511719 81.429688 C 154.511719 81.429688 159.335938 79.511719 165.03125 77.738281 C 165.722656 77.519531 166.429688 77.304688 167.144531 77.097656 C 174.53125 74.941406 182.542969 73.421875 183.164062 76.730469 " fill-opacity="1" fill-rule="nonzero"/></g><g clip-path="url(#8232e62870)"><path fill="#1b1919" d="M 110.253906 112.039062 C 110.253906 112.039062 108.902344 112.554688 106.367188 113.519531 C 103.785156 114.488281 100.234375 115.886719 95.652344 117.738281 C 91.085938 119.636719 85.523438 121.9375 79.339844 124.875 C 73.152344 127.800781 66.238281 131.230469 59.074219 135.480469 C 51.933594 139.738281 44.441406 144.730469 37.433594 150.882812 C 30.460938 157.054688 23.925781 164.324219 19.179688 173.039062 C 14.511719 181.574219 11.945312 191.742188 12.109375 202.179688 C 12.207031 207.410156 12.945312 212.703125 14.265625 217.925781 C 15.617188 223.140625 17.550781 228.265625 19.949219 233.207031 C 24.742188 243.101562 31.476562 252.144531 39.183594 260.003906 C 41.113281 261.972656 43.117188 263.851562 45.160156 265.675781 L 45.542969 266.019531 C 45.425781 265.929688 45.570312 266.046875 45.570312 266.046875 L 45.671875 266.128906 L 45.875 266.296875 L 46.6875 266.972656 L 48.3125 268.316406 C 49.390625 269.210938 50.46875 270.105469 51.542969 270.996094 C 53.710938 272.617188 55.863281 274.230469 58.003906 275.835938 C 60.242188 277.355469 62.464844 278.863281 64.671875 280.359375 C 73.644531 286.152344 82.835938 291.015625 91.761719 295.195312 C 92.878906 295.71875 93.988281 296.242188 95.085938 296.757812 C 96.203125 297.242188 97.3125 297.722656 98.410156 298.203125 C 100.613281 299.148438 102.761719 300.136719 104.929688 300.976562 C 107.089844 301.84375 109.210938 302.699219 111.292969 303.535156 C 113.398438 304.320312 115.464844 305.089844 117.488281 305.84375 C 119.503906 306.617188 121.511719 307.292969 123.464844 307.96875 C 125.421875 308.640625 127.324219 309.328125 129.199219 309.9375 C 132.957031 311.128906 136.5 312.339844 139.878906 313.320312 C 143.246094 314.339844 146.398438 315.300781 149.335938 316.105469 C 152.269531 316.929688 154.957031 317.710938 157.402344 318.34375 C 159.847656 318.992188 162.03125 319.570312 163.929688 320.074219 C 165.835938 320.550781 167.457031 320.957031 168.769531 321.285156 C 171.398438 321.945312 172.804688 322.296875 172.804688 322.296875 C 172.804688 322.296875 171.382812 322.019531 168.726562 321.496094 C 167.394531 321.234375 165.753906 320.910156 163.824219 320.53125 C 161.898438 320.125 159.691406 319.660156 157.214844 319.136719 C 154.730469 318.628906 152.003906 317.988281 149.023438 317.3125 C 146.039062 316.65625 142.839844 315.855469 139.410156 315.011719 C 135.972656 314.199219 132.359375 313.167969 128.523438 312.164062 C 126.609375 311.652344 124.664062 311.058594 122.664062 310.488281 C 120.664062 309.90625 118.609375 309.328125 116.539062 308.65625 C 114.460938 308 112.339844 307.332031 110.179688 306.652344 C 108.035156 305.914062 105.851562 305.164062 103.628906 304.398438 C 101.394531 303.664062 99.171875 302.777344 96.890625 301.933594 C 95.753906 301.503906 94.605469 301.074219 93.453125 300.644531 C 92.308594 300.175781 91.160156 299.703125 90 299.230469 C 80.722656 295.453125 71.09375 290.980469 61.542969 285.488281 C 59.183594 284.058594 56.804688 282.621094 54.410156 281.171875 C 52.058594 279.585938 49.691406 277.992188 47.308594 276.386719 C 46.191406 275.550781 45.066406 274.714844 43.941406 273.878906 L 42.25 272.617188 L 41.40625 271.988281 L 40.90625 271.609375 L 40.484375 271.265625 C 38.21875 269.445312 35.988281 267.558594 33.824219 265.566406 C 25.1875 257.613281 17.398438 248.257812 11.527344 237.597656 C 8.597656 232.273438 6.128906 226.644531 4.285156 220.78125 C 2.472656 214.914062 1.289062 208.824219 0.855469 202.671875 C 0.0234375 190.351562 2.421875 177.921875 7.625 167.132812 C 8.296875 165.761719 9 164.277344 9.636719 163.1875 L 10.605469 161.425781 L 10.730469 161.207031 L 10.789062 161.097656 C 10.726562 161.195312 10.941406 160.835938 10.949219 160.832031 L 11.238281 160.375 L 11.824219 159.460938 C 12.609375 158.25 13.386719 157.039062 14.164062 155.839844 C 14.945312 154.636719 15.84375 153.554688 16.679688 152.417969 C 20.027344 147.875 23.792969 143.921875 27.527344 140.175781 C 35.113281 132.804688 43.054688 126.917969 50.554688 121.90625 C 58.074219 116.910156 65.230469 112.890625 71.617188 109.460938 C 78 106.019531 83.675781 103.324219 88.339844 101.097656 C 93.039062 98.90625 96.800781 97.203125 99.246094 96.140625 C 101.726562 95.046875 103.046875 94.464844 103.046875 94.464844 L 110.253906 112.039062 " fill-opacity="1" fill-rule="nonzero"/></g><g fill="#000000" fill-opacity="1"><g transform="translate(71.994441, 121.676997)"><g><path d="M 0.171875 1.921875 C -0.078125 1.921875 -0.28125 1.882812 -0.4375 1.8125 L -0.4375 1.296875 C -0.25 1.347656 -0.0703125 1.375 0.09375 1.375 C 0.300781 1.375 0.453125 1.316406 0.546875 1.203125 C 0.640625 1.085938 0.6875 0.921875 0.6875 0.703125 L 0.6875 -4.265625 L 1.328125 -4.265625 L 1.328125 0.65625 C 1.328125 1.5 0.941406 1.921875 0.171875 1.921875 Z M 0.625 -5.421875 C 0.625 -5.566406 0.660156 -5.671875 0.734375 -5.734375 C 0.804688 -5.804688 0.898438 -5.84375 1.015625 -5.84375 C 1.117188 -5.84375 1.207031 -5.804688 1.28125 -5.734375 C 1.351562 -5.671875 1.390625 -5.566406 1.390625 -5.421875 C 1.390625 -5.273438 1.351562 -5.164062 1.28125 -5.09375 C 1.207031 -5.019531 1.117188 -4.984375 1.015625 -4.984375 C 0.898438 -4.984375 0.804688 -5.019531 0.734375 -5.09375 C 0.660156 -5.164062 0.625 -5.273438 0.625 -5.421875 Z M 0.625 -5.421875 "/></g></g></g></svg>